{
    "asset" : {
        "generator" : "Khronos glTF Blender I/O v1.1.46",
        "version" : "2.0"
    },
    "scene" : 0,
    "scenes" : [
        {
            "name" : "Scene",
            "nodes" : [
                0,
                1,
                3
            ]
        }
    ],
    "nodes" : [
        {
            "name" : "Light",
            "rotation" : [
                0.16907575726509094,
                0.7558803558349609,
                -0.27217137813568115,
                0.570947527885437
            ],
            "translation" : [
                4.076245307922363,
                5.903861999511719,
                -1.0054539442062378
            ]
        },
        {
            "name" : "Camera",
            "rotation" : [
                0.6603268980979919,
                0.27533432841300964,
                -0.28501006960868835,
                0.6379095911979675
            ],
            "translation" : [
                8.388516426086426,
                0.03240823745727539,
                7.720571517944336
            ]
        },
        {
            "mesh" : 0,
            "name" : "GLASS"
        },
        {
            "children" : [
                2
            ],
            "mesh" : 1,
            "name" : "VLJ"
        }
    ],
    "materials" : [
        {
            "alphaMode" : "BLEND",
            "name" : "GLASS",
            "pbrMetallicRoughness" : {}
        },
        {
            "doubleSided" : true,
            "emissiveFactor" : [
                0,
                0,
                0
            ],
            "name" : "FUS",
            "pbrMetallicRoughness" : {
                "baseColorFactor" : [
                    0.800000011920929,
                    0.800000011920929,
                    0.800000011920929,
                    1
                ],
                "metallicFactor" : 0.24090903997421265,
                "roughnessFactor" : 0.5090909004211426
            }
        }
    ],
    "meshes" : [
        {
            "name" : "Cube.001",
            "primitives" : [
                {
                    "attributes" : {
                        "POSITION" : 0,
                        "NORMAL" : 1,
                        "TEXCOORD_0" : 2
                    },
                    "indices" : 3,
                    "material" : 0
                }
            ]
        },
        {
            "name" : "Plane",
            "primitives" : [
                {
                    "attributes" : {
                        "POSITION" : 4,
                        "NORMAL" : 5,
                        "TEXCOORD_0" : 6
                    },
                    "indices" : 7,
                    "material" : 1
                }
            ]
        }
    ],
    "accessors" : [
        {
            "bufferView" : 0,
            "componentType" : 5126,
            "count" : 142,
            "max" : [
                0.31858858466148376,
                0.3427231013774872,
                1.352450966835022
            ],
            "min" : [
                -0.31858858466148376,
                0.17691436409950256,
                0.8955299854278564
            ],
            "type" : "VEC3"
        },
        {
            "bufferView" : 1,
            "componentType" : 5126,
            "count" : 142,
            "type" : "VEC3"
        },
        {
            "bufferView" : 2,
            "componentType" : 5126,
            "count" : 142,
            "type" : "VEC2"
        },
        {
            "bufferView" : 3,
            "componentType" : 5123,
            "count" : 690,
            "type" : "SCALAR"
        },
        {
            "bufferView" : 4,
            "componentType" : 5126,
            "count" : 4773,
            "max" : [
                2.6393442153930664,
                0.7994921207427979,
                2.0157270431518555
            ],
            "min" : [
                -2.6393442153930664,
                -0.35749736428260803,
                -2.013129949569702
            ],
            "type" : "VEC3"
        },
        {
            "bufferView" : 5,
            "componentType" : 5126,
            "count" : 4773,
            "type" : "VEC3"
        },
        {
            "bufferView" : 6,
            "componentType" : 5126,
            "count" : 4773,
            "type" : "VEC2"
        },
        {
            "bufferView" : 7,
            "componentType" : 5123,
            "count" : 21192,
            "type" : "SCALAR"
        }
    ],
    "bufferViews" : [
        {
            "buffer" : 0,
            "byteLength" : 1704,
            "byteOffset" : 0
        },
        {
            "buffer" : 0,
            "byteLength" : 1704,
            "byteOffset" : 1704
        },
        {
            "buffer" : 0,
            "byteLength" : 1136,
            "byteOffset" : 3408
        },
        {
            "buffer" : 0,
            "byteLength" : 1380,
            "byteOffset" : 4544
        },
        {
            "buffer" : 0,
            "byteLength" : 57276,
            "byteOffset" : 5924
        },
        {
            "buffer" : 0,
            "byteLength" : 57276,
            "byteOffset" : 63200
        },
        {
            "buffer" : 0,
            "byteLength" : 38184,
            "byteOffset" : 120476
        },
        {
            "buffer" : 0,
            "byteLength" : 42384,
            "byteOffset" : 158660
        }
    ],
    "buffers" : [
        {
            "byteLength" : 201044,
            "uri" : "data:application/octet-stream;base64,"
        }
    ]
}
